<?xml version="1.0" encoding="UTF-8"?>
<svg width="40px" height="40px" viewBox="0 0 40 40" version="1.1" xmlns="http://www.w3.org/2000/svg" xmlns:xlink="http://www.w3.org/1999/xlink">
    <title>后退</title>
    <g id="-----t80" stroke="none" stroke-width="1" fill="none" fill-rule="evenodd">
        <g id="通话录音" transform="translate(-713.000000, -663.000000)">
            <g id="编组-10" transform="translate(532.000000, 612.000000)">
                <g id="编组-8" transform="translate(181.000000, 48.000000)">
                    <g id="后退" transform="translate(0.000000, 3.000000)">
                        <rect id="矩形" x="0" y="0" width="40" height="40"></rect>
                        <g id="icon/查看备份" transform="translate(20.500000, 19.500000) scale(-1, 1) translate(-20.500000, -19.500000) translate(4.000000, 3.000000)" fill="#4465EB" fill-rule="nonzero">
                            <path d="M28.75,-4.4408921e-15 C29.3636497,-4.4408921e-15 29.8740209,0.442187901 29.9798608,1.02531092 L30,1.25 L30,8.75 C30,9.36364972 29.5578121,9.87402093 28.9746891,9.97986083 L28.75,10 L21.25,10 C20.5596441,10 20,9.44035594 20,8.75 C20,8.13635028 20.4421879,7.62597907 21.0253109,7.52013917 L21.25,7.5 L27.178135,7.50101578 C27.1604031,7.48259017 27.1431133,7.46352023 27.1262964,7.44380842 C24.4885581,4.35200334 20.6431012,2.53846154 16.5,2.53846154 C8.78925522,2.53846154 2.53846154,8.78925522 2.53846154,16.5 C2.53846154,24.2107448 8.78925522,30.4615385 16.5,30.4615385 C24.2107448,30.4615385 30.4615385,24.2107448 30.4615385,16.5 C30.4615385,15.7990232 31.0297924,15.2307692 31.7307692,15.2307692 C32.431746,15.2307692 33,15.7990232 33,16.5 C33,25.6126984 25.6126984,33 16.5,33 C7.38730163,33 0,25.6126984 0,16.5 C0,7.38730163 7.38730163,-1.0658141e-14 16.5,-1.0658141e-14 C20.6316432,-1.0658141e-14 24.5167671,1.52866898 27.5012151,4.20174805 L27.5,1.25 C27.5,0.636350278 27.9421879,0.125979074 28.5253109,0.0201391735 L28.75,-4.4408921e-15 Z" id="形状结合"></path>
                        </g>
                        <text id="15" font-family="PingFangSC-Medium, PingFang SC" font-size="13" font-weight="400" fill="#4465EB">
                            <tspan x="13.448" y="25">15</tspan>
                        </text>
                    </g>
                </g>
            </g>
        </g>
    </g>
</svg>