<?xml version="1.0" encoding="UTF-8"?>
<svg width="16px" height="16px" viewBox="0 0 16 16" version="1.1" xmlns="http://www.w3.org/2000/svg" xmlns:xlink="http://www.w3.org/1999/xlink">
    <title>切片</title>
    <g id="页面-1" stroke="none" stroke-width="1" fill="none" fill-rule="evenodd">
        <g id="交互详情" transform="translate(-939.000000, -277.000000)" fill="#363F55" fill-rule="nonzero">
            <g id="icon/编辑备份" transform="translate(939.000000, 277.000000)">
                <path d="M9.859375,1.78125 C10.1700312,1.78125 10.421875,2.03309375 10.421875,2.34375 C10.421875,2.65129687 10.1750469,2.90120312 9.86867188,2.90617188 L9.859375,2.90625 L3.34375,2.90625 C3.10453125,2.90625 2.91017188,3.09823438 2.9063125,3.33651563 L2.90625,3.34375 L2.90625,12.65625 C2.90625,12.8954687 3.09823438,13.0898281 3.33651563,13.0936875 L3.34375,13.09375 L12.65625,13.09375 C12.8954688,13.09375 13.0898281,12.9017656 13.0936875,12.6634844 L13.09375,12.65625 L13.09375,6.1328125 C13.09375,5.82215625 13.3455938,5.5703125 13.65625,5.5703125 C13.9637969,5.5703125 14.2137031,5.81714063 14.21875,6.12351562 L14.21875,12.65625 C14.21875,13.5105625 13.533125,14.20475 12.6820938,14.2185469 L12.65625,14.21875 L3.34375,14.21875 C2.4894375,14.21875 1.79525,13.533125 1.78145313,12.6820937 L1.78125,12.65625 L1.78125,3.34375 C1.78125,2.4894375 2.466875,1.79525 3.31790625,1.78145313 L3.34375,1.78125 L9.859375,1.78125 Z M14.0685156,1.93929687 C14.3125937,2.18335937 14.3125937,2.57909375 14.0685156,2.82317187 L9.04142187,7.85026562 C8.79735937,8.09434375 8.401625,8.09434375 8.15754687,7.85026562 C7.91346875,7.60620312 7.91346875,7.21045312 8.15754687,6.96639062 L13.1846406,1.93929687 C13.4287031,1.69521875 13.8244375,1.69521875 14.0685156,1.93929687 Z" id="形状"></path>
            </g>
        </g>
    </g>
</svg>