<?xml version="1.0" encoding="UTF-8"?>
<svg width="16px" height="16px" viewBox="0 0 16 16" version="1.1" xmlns="http://www.w3.org/2000/svg" xmlns:xlink="http://www.w3.org/1999/xlink">
    <title>切片</title>
    <g id="页面-1" stroke="none" stroke-width="1" fill="none" fill-rule="evenodd">
        <g id="交互详情" transform="translate(-172.000000, -336.000000)" fill="#CDD0D6">
            <g id="编组备份" transform="translate(46.000000, 51.000000)">
                <g id="编组-12" transform="translate(0.000000, 71.000000)">
                    <g id="icon/标记" transform="translate(126.000000, 214.000000)">
                        <path d="M2,2.68854786 C2,2.25347481 2.28130362,1.86832589 2.69575096,1.73595533 L3.59058793,1.45015287 C4.51048129,1.15634764 5.4957733,1.1352109 6.42742015,1.3892964 L9.4295843,2.20806844 C10.4470399,2.48555634 11.528166,2.41376891 12.5,2.00419099 L12.6116332,1.95714335 C13.1205663,1.7426543 13.7070158,1.98134835 13.9215049,2.49028144 C13.9733112,2.61320584 14,2.74525295 14,2.87864823 L14,8.41802234 C14,8.8689734 13.6981787,9.26413309 13.2631174,9.38278616 L12.315587,9.64120354 C11.4542582,9.8761114 10.5457418,9.8761114 9.68441297,9.64120354 L6.31558703,8.72243283 C5.45425821,8.48752497 4.54574179,8.48752497 3.68441297,8.72243283 L3.4,8.80011539 L3.4,14.3 C3.4,14.6865993 3.08659932,15 2.7,15 C2.31340068,15 2,14.6865993 2,14.3 L2,2.68854786 Z" id="形状结合"></path>
                    </g>
                </g>
            </g>
        </g>
    </g>
</svg>
